<mxfile host="app.diagrams.net" modified="2024-05-10T07:47:11.411Z" agent="Mozilla/5.0 (Windows NT 10.0; Win64; x64) AppleWebKit/537.36 (KHTML, like Gecko) Chrome/124.0.0.0 Safari/537.36" etag="RE8vvmvUnfTEBrA39pXW" version="24.2.2" type="device">
  <diagram name="Страница — 1" id="Z9N-jdOSxp0XZ1hQaEwk">
    <mxGraphModel dx="4364" dy="1518" grid="1" gridSize="10" guides="1" tooltips="1" connect="1" arrows="1" fold="1" page="1" pageScale="1" pageWidth="827" pageHeight="1169" math="0" shadow="0">
      <root>
        <mxCell id="0" />
        <mxCell id="1" parent="0" />
        <mxCell id="tnYpFo8ILh_rvgwoeTNM-9" value="" style="edgeStyle=orthogonalEdgeStyle;rounded=0;orthogonalLoop=1;jettySize=auto;html=1;entryX=0.5;entryY=0;entryDx=0;entryDy=0;exitX=0.5;exitY=1;exitDx=0;exitDy=0;" edge="1" parent="1" source="tnYpFo8ILh_rvgwoeTNM-1">
          <mxGeometry relative="1" as="geometry">
            <mxPoint x="-180" y="190" as="sourcePoint" />
            <mxPoint x="242.5" y="330" as="targetPoint" />
          </mxGeometry>
        </mxCell>
        <mxCell id="tnYpFo8ILh_rvgwoeTNM-1" value="&lt;div&gt;&lt;br&gt;&lt;/div&gt;&lt;div&gt;&lt;br&gt;&lt;/div&gt;&lt;div&gt;&lt;br&gt;&lt;/div&gt;&lt;div&gt;&lt;br&gt;&lt;/div&gt;&lt;div&gt;&lt;br&gt;&lt;/div&gt;&lt;div&gt;&lt;b&gt;&lt;font style=&quot;font-size: 14px;&quot;&gt;Посетители&lt;/font&gt;&lt;/b&gt;&lt;/div&gt;&lt;div&gt;&lt;font style=&quot;font-size: 12px;&quot;&gt;[Пользователь]&lt;/font&gt;&lt;/div&gt;&lt;div&gt;&lt;font style=&quot;font-size: 12px;&quot;&gt;&lt;br&gt;&lt;/font&gt;&lt;/div&gt;&lt;div&gt;Слушают доклады, просматривают расписание и материалы докладов,&amp;nbsp;&amp;nbsp;&lt;/div&gt;&lt;div&gt;голосуют за доклады&lt;/div&gt;" style="shape=actor;whiteSpace=wrap;html=1;fillColor=#66B2FF;" vertex="1" parent="1">
          <mxGeometry x="-120" width="190" height="190" as="geometry" />
        </mxCell>
        <mxCell id="tnYpFo8ILh_rvgwoeTNM-10" style="edgeStyle=orthogonalEdgeStyle;rounded=0;orthogonalLoop=1;jettySize=auto;html=1;entryX=0.49;entryY=-0.019;entryDx=0;entryDy=0;entryPerimeter=0;exitX=0.5;exitY=1;exitDx=0;exitDy=0;" edge="1" parent="1" source="tnYpFo8ILh_rvgwoeTNM-2">
          <mxGeometry relative="1" as="geometry">
            <mxPoint x="394.38" y="330.00000000000006" as="targetPoint" />
            <mxPoint x="395.63" y="191.70999999999995" as="sourcePoint" />
            <Array as="points">
              <mxPoint x="394" y="190" />
              <mxPoint x="394" y="261" />
              <mxPoint x="394" y="261" />
            </Array>
          </mxGeometry>
        </mxCell>
        <mxCell id="tnYpFo8ILh_rvgwoeTNM-2" value="&lt;div&gt;&lt;br&gt;&lt;/div&gt;&lt;div&gt;&lt;br&gt;&lt;/div&gt;&lt;div&gt;&lt;br&gt;&lt;/div&gt;&lt;div&gt;&lt;br&gt;&lt;/div&gt;&lt;div&gt;&lt;br&gt;&lt;/div&gt;&lt;div&gt;&lt;b&gt;&lt;font style=&quot;font-size: 14px;&quot;&gt;Докладчики&lt;/font&gt;&lt;/b&gt;&lt;/div&gt;&lt;div&gt;[Пользователь]&lt;b&gt;&lt;font style=&quot;font-size: 14px;&quot;&gt;&lt;br&gt;&lt;/font&gt;&lt;/b&gt;&lt;/div&gt;&lt;div&gt;&lt;br&gt;&lt;/div&gt;&lt;div&gt;&lt;font style=&quot;font-size: 12px;&quot;&gt;Читают доклады и загружают материалы в систему&lt;/font&gt;&lt;/div&gt;" style="shape=actor;whiteSpace=wrap;html=1;fillColor=#66B2FF;" vertex="1" parent="1">
          <mxGeometry x="300" width="190" height="190" as="geometry" />
        </mxCell>
        <mxCell id="tnYpFo8ILh_rvgwoeTNM-3" value="&lt;div&gt;&lt;br&gt;&lt;/div&gt;&lt;div&gt;&lt;br&gt;&lt;/div&gt;&lt;div&gt;&lt;br&gt;&lt;/div&gt;&lt;div&gt;&lt;br&gt;&lt;/div&gt;&lt;div&gt;&lt;br&gt;&lt;/div&gt;&lt;div&gt;&lt;br&gt;&lt;/div&gt;&lt;div&gt;&lt;b&gt;&lt;font style=&quot;font-size: 14px;&quot;&gt;Сотрудники&amp;nbsp;&lt;span style=&quot;background-color: initial;&quot;&gt;мероприятия&lt;/span&gt;&lt;/font&gt;&lt;/b&gt;&lt;/div&gt;&lt;div&gt;[Пользователь]&lt;b&gt;&lt;font style=&quot;font-size: 14px;&quot;&gt;&lt;span style=&quot;background-color: initial;&quot;&gt;&lt;br&gt;&lt;/span&gt;&lt;/font&gt;&lt;/b&gt;&lt;/div&gt;&lt;div&gt;&lt;br&gt;&lt;/div&gt;&lt;div&gt;&lt;span style=&quot;background-color: initial;&quot;&gt;Управляют расписанием,&amp;nbsp;&lt;/span&gt;&lt;/div&gt;&lt;div&gt;вносят результаты голосования и отправляют нотификации посетителям или докладчикам&lt;/div&gt;" style="shape=actor;whiteSpace=wrap;html=1;fillColor=#66B2FF;" vertex="1" parent="1">
          <mxGeometry x="660" width="260" height="190" as="geometry" />
        </mxCell>
        <mxCell id="tnYpFo8ILh_rvgwoeTNM-4" value="&lt;font style=&quot;font-size: 14px;&quot;&gt;&lt;b&gt;Веб-приложение&lt;/b&gt;&lt;/font&gt;&lt;div&gt;[Подсистема: Javascript, React]&lt;/div&gt;&lt;div&gt;&lt;br&gt;&lt;/div&gt;&lt;div&gt;Предоставляет доступ для пользователей системы к различным действиям&lt;/div&gt;" style="rounded=1;whiteSpace=wrap;html=1;fillColor=#CCFFFF;" vertex="1" parent="1">
          <mxGeometry x="210" y="330" width="375" height="90" as="geometry" />
        </mxCell>
        <mxCell id="tnYpFo8ILh_rvgwoeTNM-18" style="edgeStyle=orthogonalEdgeStyle;rounded=0;orthogonalLoop=1;jettySize=auto;html=1;entryX=0;entryY=0.5;entryDx=0;entryDy=0;" edge="1" parent="1" source="tnYpFo8ILh_rvgwoeTNM-5" target="tnYpFo8ILh_rvgwoeTNM-17">
          <mxGeometry relative="1" as="geometry" />
        </mxCell>
        <mxCell id="tnYpFo8ILh_rvgwoeTNM-35" style="edgeStyle=orthogonalEdgeStyle;rounded=0;orthogonalLoop=1;jettySize=auto;html=1;entryX=0.5;entryY=0;entryDx=0;entryDy=0;" edge="1" parent="1" source="tnYpFo8ILh_rvgwoeTNM-5" target="tnYpFo8ILh_rvgwoeTNM-22">
          <mxGeometry relative="1" as="geometry">
            <Array as="points">
              <mxPoint x="-533" y="500" />
            </Array>
          </mxGeometry>
        </mxCell>
        <mxCell id="tnYpFo8ILh_rvgwoeTNM-5" value="&lt;span style=&quot;font-size: 14px;&quot;&gt;&lt;b&gt;Балансировщик соединений&lt;/b&gt;&lt;/span&gt;&lt;br&gt;&lt;div&gt;[Подсистема: Nginx]&lt;/div&gt;&lt;div&gt;&lt;br&gt;&lt;/div&gt;&lt;div&gt;Производит балансировку нагрузки&lt;/div&gt;" style="rounded=1;whiteSpace=wrap;html=1;fillColor=#CCFFFF;" vertex="1" parent="1">
          <mxGeometry x="210" y="480" width="375" height="90" as="geometry" />
        </mxCell>
        <mxCell id="tnYpFo8ILh_rvgwoeTNM-6" value="" style="endArrow=classic;html=1;rounded=0;exitX=0.5;exitY=1;exitDx=0;exitDy=0;entryX=0.5;entryY=0;entryDx=0;entryDy=0;" edge="1" parent="1" source="tnYpFo8ILh_rvgwoeTNM-4" target="tnYpFo8ILh_rvgwoeTNM-5">
          <mxGeometry width="50" height="50" relative="1" as="geometry">
            <mxPoint x="440" y="430" as="sourcePoint" />
            <mxPoint x="490" y="380" as="targetPoint" />
          </mxGeometry>
        </mxCell>
        <mxCell id="tnYpFo8ILh_rvgwoeTNM-7" value="Перенаправляет запросы&amp;nbsp;&lt;div&gt;[HTTPS]&lt;br&gt;&lt;/div&gt;" style="text;html=1;align=center;verticalAlign=middle;whiteSpace=wrap;rounded=0;" vertex="1" parent="1">
          <mxGeometry x="375" y="430" width="210" height="30" as="geometry" />
        </mxCell>
        <mxCell id="tnYpFo8ILh_rvgwoeTNM-11" style="edgeStyle=orthogonalEdgeStyle;rounded=0;orthogonalLoop=1;jettySize=auto;html=1;entryX=0.881;entryY=-0.019;entryDx=0;entryDy=0;entryPerimeter=0;exitX=0.5;exitY=1;exitDx=0;exitDy=0;" edge="1" parent="1" source="tnYpFo8ILh_rvgwoeTNM-3" target="tnYpFo8ILh_rvgwoeTNM-4">
          <mxGeometry relative="1" as="geometry" />
        </mxCell>
        <mxCell id="tnYpFo8ILh_rvgwoeTNM-12" value="Просмотривают расписания и голосуют за доклады&amp;nbsp;&lt;div&gt;[HTTPS]&lt;/div&gt;" style="text;html=1;align=center;verticalAlign=middle;whiteSpace=wrap;rounded=0;" vertex="1" parent="1">
          <mxGeometry x="-20" y="220" width="210" height="30" as="geometry" />
        </mxCell>
        <mxCell id="tnYpFo8ILh_rvgwoeTNM-13" value="Загружают материалы в систему&lt;div&gt;[HTTPS]&lt;br&gt;&lt;/div&gt;" style="text;html=1;align=center;verticalAlign=middle;whiteSpace=wrap;rounded=0;" vertex="1" parent="1">
          <mxGeometry x="250" y="220" width="196" height="30" as="geometry" />
        </mxCell>
        <mxCell id="tnYpFo8ILh_rvgwoeTNM-14" value="Изменяют расписание, результаты голосования, отправляют нотификации&lt;div&gt;[HTTPS]&lt;br&gt;&lt;/div&gt;" style="text;html=1;align=center;verticalAlign=middle;whiteSpace=wrap;rounded=0;" vertex="1" parent="1">
          <mxGeometry x="540" y="220" width="240" height="30" as="geometry" />
        </mxCell>
        <mxCell id="tnYpFo8ILh_rvgwoeTNM-15" value="&lt;font style=&quot;font-size: 14px;&quot;&gt;&lt;b&gt;Система рассылки SMS&lt;/b&gt;&lt;/font&gt;&lt;div&gt;&lt;font style=&quot;font-size: 12px;&quot;&gt;[Программная система]&lt;/font&gt;&lt;/div&gt;&lt;div&gt;&lt;font style=&quot;font-size: 12px;&quot;&gt;&lt;br&gt;&lt;/font&gt;&lt;/div&gt;&lt;div&gt;&lt;font style=&quot;font-size: 12px;&quot;&gt;Посылает пользователям SMS об изменении расписания&lt;/font&gt;&lt;/div&gt;" style="rounded=1;whiteSpace=wrap;html=1;shadow=1;fillColor=#CCCCCC;" vertex="1" parent="1">
          <mxGeometry x="-860" y="950" width="300" height="90" as="geometry" />
        </mxCell>
        <mxCell id="tnYpFo8ILh_rvgwoeTNM-16" value="&lt;font style=&quot;font-size: 14px;&quot;&gt;&lt;b&gt;Система хранения электронной почты&lt;/b&gt;&lt;/font&gt;&lt;div&gt;&lt;font style=&quot;font-size: 12px;&quot;&gt;[Программная система]&lt;/font&gt;&lt;/div&gt;&lt;div&gt;&lt;font style=&quot;font-size: 12px;&quot;&gt;&lt;br&gt;&lt;/font&gt;&lt;/div&gt;&lt;div&gt;&lt;font style=&quot;font-size: 12px;&quot;&gt;Принимает и хранит электронные письма пользователей&lt;/font&gt;&lt;/div&gt;" style="rounded=1;whiteSpace=wrap;html=1;shadow=1;fillColor=#CCCCCC;" vertex="1" parent="1">
          <mxGeometry x="-510" y="950" width="300" height="90" as="geometry" />
        </mxCell>
        <mxCell id="tnYpFo8ILh_rvgwoeTNM-17" value="&lt;span style=&quot;font-size: 14px;&quot;&gt;&lt;b&gt;Сервис авторизации&lt;/b&gt;&lt;/span&gt;&lt;br&gt;&lt;div&gt;[Подсистема: Java, SpringBoot]&lt;/div&gt;&lt;div&gt;&lt;br&gt;&lt;/div&gt;&lt;div&gt;Производит авторизацию и аутентификацию пользователей&lt;/div&gt;" style="rounded=1;whiteSpace=wrap;html=1;fillColor=#CCFFFF;" vertex="1" parent="1">
          <mxGeometry x="800" y="480" width="375" height="90" as="geometry" />
        </mxCell>
        <mxCell id="tnYpFo8ILh_rvgwoeTNM-19" value="&lt;div&gt;Запрашивает авторизацию&amp;nbsp;&lt;/div&gt;&lt;div&gt;[HTTPS / JSON]&lt;/div&gt;" style="text;html=1;align=center;verticalAlign=middle;whiteSpace=wrap;rounded=0;" vertex="1" parent="1">
          <mxGeometry x="590" y="490" width="196" height="30" as="geometry" />
        </mxCell>
        <mxCell id="tnYpFo8ILh_rvgwoeTNM-30" style="edgeStyle=orthogonalEdgeStyle;rounded=0;orthogonalLoop=1;jettySize=auto;html=1;entryX=1;entryY=0.5;entryDx=0;entryDy=0;" edge="1" parent="1" source="tnYpFo8ILh_rvgwoeTNM-20" target="tnYpFo8ILh_rvgwoeTNM-29">
          <mxGeometry relative="1" as="geometry" />
        </mxCell>
        <mxCell id="tnYpFo8ILh_rvgwoeTNM-20" value="&lt;span style=&quot;font-size: 14px;&quot;&gt;&lt;b&gt;Система голосований&lt;/b&gt;&lt;/span&gt;&lt;br&gt;&lt;div&gt;[Подсистема: Java, SpringBoot]&lt;br&gt;&lt;/div&gt;&lt;div&gt;&lt;br&gt;&lt;/div&gt;&lt;div&gt;Обеспечивает процесс голосования за доклады&lt;/div&gt;&lt;div&gt;&lt;br&gt;&lt;/div&gt;" style="rounded=1;whiteSpace=wrap;html=1;fillColor=#CCFFFF;" vertex="1" parent="1">
          <mxGeometry x="-210" y="740" width="375" height="90" as="geometry" />
        </mxCell>
        <mxCell id="tnYpFo8ILh_rvgwoeTNM-21" value="&lt;div&gt;&lt;b style=&quot;font-size: 14px; background-color: initial;&quot;&gt;Система докладов&lt;/b&gt;&lt;br&gt;&lt;/div&gt;&lt;div&gt;&lt;div&gt;[Подсистема: Java, SpringBoot]&lt;/div&gt;&lt;div&gt;&lt;br&gt;&lt;/div&gt;&lt;div&gt;Обеспечивает управление докладами на конференциях&lt;/div&gt;&lt;/div&gt;" style="rounded=1;whiteSpace=wrap;html=1;fillColor=#CCFFFF;" vertex="1" parent="1">
          <mxGeometry x="225" y="740" width="375" height="90" as="geometry" />
        </mxCell>
        <mxCell id="tnYpFo8ILh_rvgwoeTNM-22" value="&lt;div&gt;&lt;span style=&quot;font-size: 14px;&quot;&gt;&lt;b&gt;Система расписаний&lt;/b&gt;&lt;/span&gt;&lt;/div&gt;&lt;div&gt;[Подсистема: Java, SpringBoot]&lt;br&gt;&lt;/div&gt;&lt;div&gt;&lt;br&gt;&lt;/div&gt;&lt;div&gt;Управляет расписаниями конференций&lt;/div&gt;" style="rounded=1;whiteSpace=wrap;html=1;fillColor=#CCFFFF;" vertex="1" parent="1">
          <mxGeometry x="-720" y="530" width="375" height="90" as="geometry" />
        </mxCell>
        <mxCell id="tnYpFo8ILh_rvgwoeTNM-23" style="edgeStyle=orthogonalEdgeStyle;rounded=0;orthogonalLoop=1;jettySize=auto;html=1;entryX=0.464;entryY=-0.026;entryDx=0;entryDy=0;entryPerimeter=0;" edge="1" parent="1" source="tnYpFo8ILh_rvgwoeTNM-5" target="tnYpFo8ILh_rvgwoeTNM-20">
          <mxGeometry relative="1" as="geometry" />
        </mxCell>
        <mxCell id="tnYpFo8ILh_rvgwoeTNM-25" style="edgeStyle=orthogonalEdgeStyle;rounded=0;orthogonalLoop=1;jettySize=auto;html=1;entryX=0.46;entryY=-0.017;entryDx=0;entryDy=0;entryPerimeter=0;" edge="1" parent="1" source="tnYpFo8ILh_rvgwoeTNM-5" target="tnYpFo8ILh_rvgwoeTNM-21">
          <mxGeometry relative="1" as="geometry" />
        </mxCell>
        <mxCell id="tnYpFo8ILh_rvgwoeTNM-26" value="Добавляет/ изменяет / удаляет конференции и&amp;nbsp; доклады&amp;nbsp;&lt;div&gt;[HTTPS / JSON]&lt;br&gt;&lt;/div&gt;" style="text;html=1;align=center;verticalAlign=middle;whiteSpace=wrap;rounded=0;" vertex="1" parent="1">
          <mxGeometry x="370" y="620" width="250" height="30" as="geometry" />
        </mxCell>
        <mxCell id="tnYpFo8ILh_rvgwoeTNM-27" value="Добавляет/ изменяет / удаляет результаты голосования&amp;nbsp;&lt;div&gt;[HTTPS / JSON]&lt;br&gt;&lt;/div&gt;" style="text;html=1;align=center;verticalAlign=middle;whiteSpace=wrap;rounded=0;" vertex="1" parent="1">
          <mxGeometry x="-30" y="620" width="250" height="30" as="geometry" />
        </mxCell>
        <mxCell id="tnYpFo8ILh_rvgwoeTNM-31" style="edgeStyle=orthogonalEdgeStyle;rounded=0;orthogonalLoop=1;jettySize=auto;html=1;entryX=0.5;entryY=0;entryDx=0;entryDy=0;" edge="1" parent="1" source="tnYpFo8ILh_rvgwoeTNM-29" target="tnYpFo8ILh_rvgwoeTNM-15">
          <mxGeometry relative="1" as="geometry">
            <Array as="points">
              <mxPoint x="-563" y="890" />
              <mxPoint x="-710" y="890" />
            </Array>
          </mxGeometry>
        </mxCell>
        <mxCell id="tnYpFo8ILh_rvgwoeTNM-32" style="edgeStyle=orthogonalEdgeStyle;rounded=0;orthogonalLoop=1;jettySize=auto;html=1;" edge="1" parent="1" source="tnYpFo8ILh_rvgwoeTNM-29">
          <mxGeometry relative="1" as="geometry">
            <mxPoint x="-400" y="950" as="targetPoint" />
            <Array as="points">
              <mxPoint x="-563" y="890" />
              <mxPoint x="-400" y="890" />
            </Array>
          </mxGeometry>
        </mxCell>
        <mxCell id="tnYpFo8ILh_rvgwoeTNM-29" value="&lt;span style=&quot;font-size: 14px;&quot;&gt;&lt;b&gt;Балансировщик соединений&lt;/b&gt;&lt;/span&gt;&lt;br&gt;&lt;div&gt;[Подсистема:&amp;nbsp;&lt;span style=&quot;background-color: initial;&quot;&gt;Nginx&lt;/span&gt;&lt;span style=&quot;background-color: initial;&quot;&gt;]&lt;/span&gt;&lt;/div&gt;&lt;div&gt;&lt;br&gt;&lt;/div&gt;&lt;div&gt;Производит балансировку нагрузки&lt;/div&gt;" style="rounded=1;whiteSpace=wrap;html=1;fillColor=#CCFFFF;" vertex="1" parent="1">
          <mxGeometry x="-713" y="740" width="300" height="90" as="geometry" />
        </mxCell>
        <mxCell id="tnYpFo8ILh_rvgwoeTNM-33" value="Перенаправляет запросы&amp;nbsp;&lt;div&gt;[HTTPS]&lt;br&gt;&lt;/div&gt;" style="text;html=1;align=center;verticalAlign=middle;whiteSpace=wrap;rounded=0;" vertex="1" parent="1">
          <mxGeometry x="-390" y="750" width="210" height="30" as="geometry" />
        </mxCell>
        <mxCell id="tnYpFo8ILh_rvgwoeTNM-34" value="Передает и получает запросы к внешним системам&amp;nbsp;&lt;div&gt;[HTTPS / JSON]&lt;br&gt;&lt;/div&gt;" style="text;html=1;align=center;verticalAlign=middle;whiteSpace=wrap;rounded=0;" vertex="1" parent="1">
          <mxGeometry x="-560" y="850" width="250" height="30" as="geometry" />
        </mxCell>
        <mxCell id="tnYpFo8ILh_rvgwoeTNM-36" value="Добавляет/ изменяет / удаляет расписания, спикеров и участников конференции&lt;div&gt;[HTTPS / JSON]&lt;br&gt;&lt;/div&gt;" style="text;html=1;align=center;verticalAlign=middle;whiteSpace=wrap;rounded=0;" vertex="1" parent="1">
          <mxGeometry x="-345" y="460" width="250" height="30" as="geometry" />
        </mxCell>
        <mxCell id="tnYpFo8ILh_rvgwoeTNM-37" style="edgeStyle=orthogonalEdgeStyle;rounded=0;orthogonalLoop=1;jettySize=auto;html=1;entryX=0.602;entryY=0.016;entryDx=0;entryDy=0;entryPerimeter=0;" edge="1" parent="1" source="tnYpFo8ILh_rvgwoeTNM-22" target="tnYpFo8ILh_rvgwoeTNM-29">
          <mxGeometry relative="1" as="geometry" />
        </mxCell>
        <mxCell id="tnYpFo8ILh_rvgwoeTNM-38" value="Уведомляет пользователей при изменении расписания&amp;nbsp;&lt;div&gt;[HTTPS / JSON]&lt;br&gt;&lt;/div&gt;" style="text;html=1;align=center;verticalAlign=middle;whiteSpace=wrap;rounded=0;" vertex="1" parent="1">
          <mxGeometry x="-540" y="650" width="210" height="30" as="geometry" />
        </mxCell>
        <mxCell id="tnYpFo8ILh_rvgwoeTNM-39" value="&lt;div&gt;&lt;span style=&quot;font-size: 14px;&quot;&gt;&lt;b&gt;База данных&lt;/b&gt;&lt;/span&gt;&lt;/div&gt;&lt;div&gt;[Подсистема: PostgreSQL]&lt;br&gt;&lt;/div&gt;&lt;div&gt;&lt;br&gt;&lt;/div&gt;&lt;div&gt;Хранит данные о расписаниях&lt;/div&gt;" style="shape=cylinder3;whiteSpace=wrap;html=1;boundedLbl=1;backgroundOutline=1;size=15;" vertex="1" parent="1">
          <mxGeometry x="-1100" y="520" width="220" height="120" as="geometry" />
        </mxCell>
        <mxCell id="tnYpFo8ILh_rvgwoeTNM-40" value="&lt;div&gt;&lt;span style=&quot;font-size: 14px;&quot;&gt;&lt;b&gt;База данных&lt;/b&gt;&lt;/span&gt;&lt;/div&gt;&lt;div&gt;[Подсистема: PostgreSQL]&lt;br&gt;&lt;/div&gt;&lt;div&gt;&lt;br&gt;&lt;/div&gt;&lt;div&gt;Хранит данные о результатах голосования&lt;/div&gt;" style="shape=cylinder3;whiteSpace=wrap;html=1;boundedLbl=1;backgroundOutline=1;size=15;" vertex="1" parent="1">
          <mxGeometry x="-120" y="935" width="220" height="120" as="geometry" />
        </mxCell>
        <mxCell id="tnYpFo8ILh_rvgwoeTNM-41" style="edgeStyle=orthogonalEdgeStyle;rounded=0;orthogonalLoop=1;jettySize=auto;html=1;entryX=1;entryY=0;entryDx=0;entryDy=82.50000000000001;entryPerimeter=0;" edge="1" parent="1" source="tnYpFo8ILh_rvgwoeTNM-22" target="tnYpFo8ILh_rvgwoeTNM-39">
          <mxGeometry relative="1" as="geometry">
            <Array as="points">
              <mxPoint x="-760" y="603" />
              <mxPoint x="-760" y="603" />
            </Array>
          </mxGeometry>
        </mxCell>
        <mxCell id="tnYpFo8ILh_rvgwoeTNM-42" value="&lt;div&gt;Чтение и запись в базу&lt;/div&gt;&lt;div&gt;[JDBC]&lt;/div&gt;" style="text;html=1;align=center;verticalAlign=middle;whiteSpace=wrap;rounded=0;" vertex="1" parent="1">
          <mxGeometry x="-930" y="570" width="250" height="30" as="geometry" />
        </mxCell>
        <mxCell id="tnYpFo8ILh_rvgwoeTNM-43" value="&lt;div&gt;&lt;span style=&quot;font-size: 14px;&quot;&gt;&lt;b&gt;База данных&lt;/b&gt;&lt;/span&gt;&lt;/div&gt;&lt;div&gt;[Подсистема: PostgreSQL]&lt;br&gt;&lt;/div&gt;&lt;div&gt;&lt;br&gt;&lt;/div&gt;&lt;div&gt;Хранит данные о конференциях и докладах&lt;/div&gt;" style="shape=cylinder3;whiteSpace=wrap;html=1;boundedLbl=1;backgroundOutline=1;size=15;" vertex="1" parent="1">
          <mxGeometry x="287.5" y="935" width="220" height="120" as="geometry" />
        </mxCell>
        <mxCell id="tnYpFo8ILh_rvgwoeTNM-44" style="edgeStyle=orthogonalEdgeStyle;rounded=0;orthogonalLoop=1;jettySize=auto;html=1;entryX=0.439;entryY=-0.001;entryDx=0;entryDy=0;entryPerimeter=0;" edge="1" parent="1" source="tnYpFo8ILh_rvgwoeTNM-20" target="tnYpFo8ILh_rvgwoeTNM-40">
          <mxGeometry relative="1" as="geometry">
            <mxPoint x="-22" y="940" as="targetPoint" />
          </mxGeometry>
        </mxCell>
        <mxCell id="tnYpFo8ILh_rvgwoeTNM-45" style="edgeStyle=orthogonalEdgeStyle;rounded=0;orthogonalLoop=1;jettySize=auto;html=1;entryX=0.565;entryY=0.008;entryDx=0;entryDy=0;entryPerimeter=0;" edge="1" parent="1" source="tnYpFo8ILh_rvgwoeTNM-21" target="tnYpFo8ILh_rvgwoeTNM-43">
          <mxGeometry relative="1" as="geometry" />
        </mxCell>
        <mxCell id="tnYpFo8ILh_rvgwoeTNM-46" value="&lt;div&gt;Чтение и запись в базу&lt;/div&gt;&lt;div&gt;[JDBC]&lt;/div&gt;" style="text;html=1;align=center;verticalAlign=middle;whiteSpace=wrap;rounded=0;" vertex="1" parent="1">
          <mxGeometry x="-80" y="860" width="250" height="30" as="geometry" />
        </mxCell>
        <mxCell id="tnYpFo8ILh_rvgwoeTNM-47" value="&lt;div&gt;Чтение и запись в базу&lt;/div&gt;&lt;div&gt;[JDBC]&lt;/div&gt;" style="text;html=1;align=center;verticalAlign=middle;whiteSpace=wrap;rounded=0;" vertex="1" parent="1">
          <mxGeometry x="355" y="860" width="250" height="30" as="geometry" />
        </mxCell>
      </root>
    </mxGraphModel>
  </diagram>
</mxfile>
